# xmcd
# 
# Track frame offsets:
#     150
#     12257
#     25627
#     40077
#     52247
#     68277
#     81000
#     92600
#     105175
#     116837
#     132327
#     149172
#     162300
#     177360
#     193782
#     207682
#     220135
#     232825
#     249385
#     264842
# 
# Disc length: 3776
# 
# Revision: 0
# Processed by: cddbd v1.5.2PL0 Copyright (c) Steve Scherf et al.
# Submitted via: BonkEnc v1.0.8
# 
DISCID=120ebe14
DTITLE=Larry Gatlin and The Gatlin Brothers - The Legendary Larry Gatlin and The Gatlin Brothers
DYEAR=2010
DGENRE=Country
TTITLE0=All The Gold In California
TTITLE1=Houston (Means I'm One Day Closer To You)
TTITLE2=I Just Wish You Were Someone I Love
TTITLE3=Broken Lady
TTITLE4=Love Is Just A Game
TTITLE5=I Don't Wanna Cry
TTITLE6=Night Time Magic
TTITLE7=Take Me To Your Lovin' Place
TTITLE8=What Are We Doin' Lonesome
TTITLE9=Sure Feels Like Love
TTITLE10=Denver
TTITLE11=The Lady Takes The Cowboy Everytime
TTITLE12=She Used To Be Somebody's Baby
TTITLE13=Talkin' To The Moon
TTITLE14=Love Of A Lifetime
TTITLE15=Statues Without Hearts
TTITLE16=Anything But Leavin'
TTITLE17=Do It Again Tonight
TTITLE18=Taking Somebody With Me When I Fall
TTITLE19=I've Done Enough Dyin' Today
EXTD=
EXTT0=
EXTT1=
EXTT2=
EXTT3=
EXTT4=
EXTT5=
EXTT6=
EXTT7=
EXTT8=
EXTT9=
EXTT10=
EXTT11=
EXTT12=
EXTT13=
EXTT14=
EXTT15=
EXTT16=
EXTT17=
EXTT18=
EXTT19=
PLAYORDER=
